<svg xmlns="http://www.w3.org/2000/svg" viewBox="0 0 680 1050" preserveAspectRatio="xMidYMid slice">
  <g fill="none" stroke="#ffffff" stroke-opacity="0.05" stroke-width="3">
    <!-- contorno do campo -->
    <rect x="40" y="40" width="600" height="970" rx="6"/>
    <!-- linha do meio -->
    <line x1="40" y1="525" x2="640" y2="525"/>
    <!-- circulo central -->
    <circle cx="340" cy="525" r="90"/>
    <circle cx="340" cy="525" r="4" fill="#ffffff" fill-opacity="0.05" stroke="none"/>
    <!-- grande area de cima -->
    <rect x="170" y="40" width="340" height="160"/>
    <rect x="250" y="40" width="180" height="70"/>
    <path d="M250 200 A90 90 0 0 0 430 200"/>
    <circle cx="340" cy="130" r="4" fill="#ffffff" fill-opacity="0.05" stroke="none"/>
    <!-- grande area de baixo -->
    <rect x="170" y="850" width="340" height="160"/>
    <rect x="250" y="940" width="180" height="70"/>
    <path d="M250 850 A90 90 0 0 1 430 850"/>
    <circle cx="340" cy="920" r="4" fill="#ffffff" fill-opacity="0.05" stroke="none"/>
    <!-- cantos -->
    <path d="M40 70 A30 30 0 0 1 70 40"/>
    <path d="M610 40 A30 30 0 0 1 640 70"/>
    <path d="M40 980 A30 30 0 0 0 70 1010"/>
    <path d="M610 1010 A30 30 0 0 0 640 980"/>
  </g>
</svg>
